<svg width="272" height="110" viewBox="0 0 272 110" fill="none" xmlns="http://www.w3.org/2000/svg">
<g clip-path="url(#clip0)">
<path d="M222.555 35.3902L224.308 18.6597H210.96H200.555L197.696 35.3902H210.96H222.555Z" fill="#F1962F"/>
<path d="M68.314 43.8209C69.6069 43.0079 70.9608 42.2969 72.3634 41.6943H39.678C42.1807 22.3761 53.4289 21.2658 68.314 21.454C71.3604 21.5386 74.3974 21.6422 77.6219 21.6422L80.6589 0.282022H80.3777C76.3284 0.197334 72.3634 -0.000270666 68.314 -0.000270666C44.2897 -0.179056 21.559 2.59682 14.9976 32.6327C10.5827 52.8731 3.86188 86.5694 0 108.795H30.9325L38.3001 63.986C38.3064 63.7273 38.3705 63.4733 38.4876 63.2427H53.0352C54.9099 54.7739 61.0402 48.0836 68.314 43.8304" fill="#F1962F"/>
<path d="M253.084 62.8476H269.479L272 42.3437H254.593L256.253 26.3472H232.866L231.207 42.3437H196.778L186.533 109.332L166.764 77.1598L193.947 42.3437H165.283L153.96 56.2796L145.392 42.419H119.147L138.653 74.9485L118.031 100.27L110.195 109.887H118.106L141.755 109.699L151.804 96.6756L159.621 109.699H215.234L220.118 62.9323H228.957L226.932 82.0717C225.058 99.8091 237.065 110.301 253.262 109.52L264.951 109.144L267.07 89.6466H259.805C255.015 89.6466 250.507 88.0751 251.369 80.8673L253.084 62.8476Z" fill="#F1962F"/>
<path d="M82.7024 110H87.1735C94.8223 109.257 102.396 106.5 107.655 101.212C112.557 96.2996 116.616 89.0353 117.15 81.5828C117.666 74.5537 115.66 70.9215 112.313 67.3741C111.882 71.0062 112.36 74.3937 111.198 77.2919C109.164 74.5913 108.442 70.5828 105.424 68.8232C105.536 79.3715 99.6215 87.1439 88.4765 83.9729C90.5668 89.5434 95.6191 92.1311 103.558 91.8206C103.943 92.2534 103.202 92.7616 103.005 92.9403C101.36 94.5692 99.4097 95.8544 97.2666 96.7217C95.1235 97.5891 92.8304 98.0213 90.5199 97.9934C80.5559 97.9934 74.06 91.0584 73.9569 81.1688C73.807 68.1457 85.6832 57.7949 97.7937 57.0516C100.72 56.9096 103.638 57.4808 106.297 58.7163C108.955 59.9517 111.277 61.8149 113.063 64.1465C111.723 54.6521 104.205 51.3587 96.4908 48.2629C112.679 47.5289 119.925 55.7907 124.799 66.3954C122.54 51.4528 114.254 40.9891 97.7937 39.6623C96.0502 39.6623 77.8563 38.3732 64.9865 53.1183C58.5469 60.5144 53.0728 70.1688 54.0008 83.0319C55.0787 98.2098 66.0926 109.229 82.6743 109.953" fill="#F1962F"/>
</g>
<defs>
<clipPath id="clip0">
<rect width="272" height="110" fill="white"/>
</clipPath>
</defs>
</svg>
